<svg xmlns="http://www.w3.org/2000/svg" viewBox="0 0 64 64"><title>contact-book</title><g id="contact-book"><path d="M48.5,52V2h-35a5,5,0,0,0-5,5V57" fill="#fff"/><path d="M53,2l.5,60h-40a5,5,0,0,1-5-5h0a5,5,0,0,1,5-5H48V2Z" fill="#e6e6e6"/><path d="M53.5,46V62h-40a5,5,0,0,1-5-5h0a5,5,0,0,1,5-5h35V2h-35a5,5,0,0,0-5,5V57" fill="none" stroke="#3e3948" stroke-miterlimit="10" stroke-width="2"/><line x1="11.5" y1="57" x2="45.5" y2="57" fill="none" stroke="#3e3948" stroke-miterlimit="10" stroke-width="2"/><line x1="47.5" y1="57" x2="49.5" y2="57" fill="none" stroke="#3e3948" stroke-miterlimit="10" stroke-width="2"/><polyline points="51.5 5 55.5 5 55.5 15 51.5 15" fill="#00c9e0"/><polyline points="51.5 5 55.5 5 55.5 15 51.5 15" fill="none" stroke="#3e3948" stroke-miterlimit="10" stroke-width="2"/><polyline points="51.5 19 55.5 19 55.5 29 51.5 29" fill="#ffcb47"/><polyline points="51.5 19 55.5 19 55.5 29 51.5 29" fill="none" stroke="#3e3948" stroke-miterlimit="10" stroke-width="2"/><polyline points="51.5 33 55.5 33 55.5 43 51.5 43" fill="#ff504d"/><polyline points="51.5 33 55.5 33 55.5 43 51.5 43" fill="none" stroke="#3e3948" stroke-miterlimit="10" stroke-width="2"/><line x1="15.5" y1="43" x2="22.5" y2="43" fill="none" stroke="#3e3948" stroke-miterlimit="10" stroke-width="2"/><line x1="24.5" y1="43" x2="41.5" y2="43" fill="none" stroke="#3e3948" stroke-miterlimit="10" stroke-width="2"/><circle cx="28.5" cy="23" r="14" fill="#00c9e0"/><circle cx="28.5" cy="23" r="14" fill="none" stroke="#3e3948" stroke-miterlimit="10" stroke-width="2"/><path d="M32.5,20l1,1a2,2,0,0,1,2,2v8h-14V23a2,2,0,0,1,2-2l1-1" fill="#ff504d"/><circle cx="28.5" cy="17" r="4" fill="#fff"/><circle cx="28.5" cy="17" r="4" fill="none" stroke="#3e3948" stroke-miterlimit="10" stroke-width="2"/><path d="M32.5,21h1a2,2,0,0,1,2,2v8h-14V23a2,2,0,0,1,2-2h1" fill="none" stroke="#3e3948" stroke-miterlimit="10" stroke-width="2"/><line x1="27.5" y1="24" x2="29.5" y2="24" fill="none" stroke="#3e3948" stroke-miterlimit="10" stroke-width="2"/><line x1="27.5" y1="28" x2="29.5" y2="28" fill="none" stroke="#3e3948" stroke-miterlimit="10" stroke-width="2"/></g></svg>